# xmcd
#
# Track frame offsets:
#	150
#	12576
#	26136
#	40541
#	52687
#	67208
#	78935
#	89457
#	102088
#	117436
#	128260
#	143120
#	156439
#	169496
#	184914
#	195768
#	220061
#	233334
#	249178
#
# Disc length: 3484 seconds
# Revision: 0
# Processed by: cddbd v1.5.2PL0 Copyright (c) Steve Scherf et al.
# Submitted via: dBpowerAMP V12.0
#
DISCID=f10d9a13
DTITLE=Dyke and The Blazers - Dyke's Greatest Hits - The Complete Singles [The Bicycle Music Company] (s)
DYEAR=2014
DGENRE=Soul
TTITLE0=Funky Broadway Part 1
TTITLE1=Funky Broadway Part 2
TTITLE2=So Sharp
TTITLE3=Don't Bug Me
TTITLE4=Funky Walk Part 1 (East)
TTITLE5=Funky Walk Part 2 (West)
TTITLE6=Funky Bull Part 1
TTITLE7=Funky Bull Part 2
TTITLE8=We Got More Soul
TTITLE9=Shotgun Slim
TTITLE10=Let A Woman Be A Woman - Let A Man Be A Man
TTITLE11=Uhh (45 Edit)
TTITLE12=You Are My Sunshine
TTITLE13=City Dump
TTITLE14=My sisters' and My Brothers' Day Is Comin'
TTITLE15=Runaway People
TTITLE16=I'm So All Alone
TTITLE17=Stuff
TTITLE18=The Wobble
EXTD=
EXTT0=
EXTT1=
EXTT2=
EXTT3=
EXTT4=
EXTT5=
EXTT6=
EXTT7=
EXTT8=
EXTT9=
EXTT10=
EXTT11=
EXTT12=
EXTT13=
EXTT14=
EXTT15=
EXTT16=
EXTT17=
EXTT18=
PLAYORDER=
